<svg xmlns="http://www.w3.org/2000/svg" viewBox="0 0 512 512" width="512" height="512">
  <circle cx="256" cy="256" r="256" fill="#fff"/>
  <!-- Black pentagons -->
  <polygon points="256,128 288,160 288,224 256,256 224,224 224,160" fill="#000"/>
  <polygon points="256,384 288,352 288,288 256,256 224,288 224,352" fill="#000"/>
  <polygon points="128,256 160,224 160,160 128,128 96,160 96,224" fill="#000"/>
  <polygon points="384,256 352,224 352,160 384,128 416,160 416,224" fill="#000"/>
  <polygon points="128,256 160,288 160,352 128,384 96,352 96,288" fill="#000"/>
  <polygon points="384,256 352,288 352,352 384,384 416,352 416,288" fill="#000"/>
</svg>